<?xml version="1.0" encoding="UTF-8"?>
<svg id="OL" xmlns="http://www.w3.org/2000/svg" viewBox="0 0 944.57 424.2">
  <defs>
    <style>
      .cls-1 {
        fill: #fff;
      }

      .cls-2 {
        fill: #333;
      }

      .cls-3 {
        fill: #db0011;
      }
    </style>
  </defs>
  <g>
    <rect class="cls-1" x="350.57" y="142.2" width="141.1" height="141.1"/>
    <g>
      <g>
        <polygon class="cls-3" points="562.17 212.8 491.67 142.2 491.67 283.3 562.17 212.8"/>
        <polygon class="cls-3" points="421.07 212.8 491.67 142.2 350.57 142.2 421.07 212.8"/>
        <polygon class="cls-3" points="279.97 212.8 350.57 283.3 350.57 142.2 279.97 212.8"/>
        <polygon class="cls-3" points="421.07 212.8 350.57 283.3 491.67 283.3 421.07 212.8"/>
      </g>
      <g>
        <path class="cls-2" d="m623.77,217h-25.6v25.3h-12.8v-59.1h12.8v24.2h25.6v-24.2h12.8v59.1h-12.8v-25.3Z"/>
        <path class="cls-2" d="m667.37,243.4c-12.7,0-23.2-5.1-23.5-19.2h12.8c.2,6.3,3.8,10.1,10.9,10.1,5.2,0,11.1-2.6,11.1-8.5,0-4.6-4-6-10.6-7.9l-4.3-1.2c-9.3-2.7-18.6-6.3-18.6-16.9,0-13.2,12.3-17.6,23.5-17.6s21.4,4,21.5,17.1h-12.8c-.5-5.4-3.6-8.5-9.6-8.5-4.7,0-9.5,2.5-9.5,7.8,0,4.3,3.9,5.6,12.3,8.3l4.9,1.6c10.1,3.2,16.5,6.7,16.5,16.5,0,13.2-13,18.4-24.6,18.4Z"/>
        <path class="cls-2" d="m699.17,183.2h20.5c6.5,0,9.1.2,11.6.7,7.2,1.6,12.6,6.3,12.6,14.2s-4.8,11.5-11.8,13.3c8,1.5,13.9,5.6,13.9,14.3,0,13.4-13.2,16.5-23.6,16.5h-23.2v-59Zm20.6,24.6c5.6,0,11.4-1.1,11.4-8,0-6.1-5.4-7.8-10.5-7.8h-9v15.8h8.1Zm1.2,25.7c6,0,11.9-1.4,11.9-8.6s-5.1-8.7-11.1-8.7h-10.1v17.2h9.3v.1Z"/>
        <path class="cls-2" d="m779.47,243.4c-19,0-27.6-12.2-27.6-30.2s9.5-31.1,28.3-31.1c11.8,0,23.2,5.2,23.5,18.6h-13.2c-.7-5.9-4.6-9-10.3-9-11.5,0-15,12.4-15,21.9s3.5,20.3,14.6,20.3c5.8,0,10.1-3.1,11-9.1h13.3c-1.6,13.5-12.4,18.6-24.6,18.6Z"/>
      </g>
    </g>
  </g>
  <g>
    <path class="cls-2" d="m145.06,208.93h26.38v5.88h-26.38v27.44h-7.59v-59.04h35.28v5.96h-27.68v19.76Z"/>
    <path class="cls-2" d="m195.69,243.15c-13.15,0-20.33-9.23-20.33-21.72s7.59-21.31,20.42-21.31,20.17,8.74,20.17,21.31-7.43,21.72-20.25,21.72Zm0-37.89c-9.23,0-12.74,8.09-12.74,16.17s3.43,16.82,12.74,16.82,12.74-8.98,12.74-16.82-3.51-16.17-12.74-16.17Z"/>
    <path class="cls-2" d="m240.54,207.38c-8.49,0-11.27,4.82-11.27,12.66v22.21h-7.19v-29.15c0-4-.08-8.09-.24-12.09h7.02l.33,6.61c2.94-4.82,6.94-6.86,12.58-6.86.73,0,1.63.08,2.29.16v6.78c-1.06-.16-2.37-.33-3.51-.33Z"/>
  </g>
</svg>